<svg width="1920" height="1268" viewBox="0 0 1920 1268" fill="none" xmlns="http://www.w3.org/2000/svg">
<mask id="mask0_1131_329" style="mask-type:luminance" maskUnits="userSpaceOnUse" x="161" y="615" width="128" height="113">
<path d="M161.914 664.609L254.93 615.369L288.012 677.861L194.996 727.102L161.914 664.609Z" fill="white"/>
</mask>
<g mask="url(#mask0_1131_329)">
<mask id="mask1_1131_329" style="mask-type:luminance" maskUnits="userSpaceOnUse" x="-23" y="300" width="596" height="558">
<path d="M-22.6771 716.209L227.012 300.571L572.592 442.319L322.899 857.949L-22.6771 716.209Z" fill="white"/>
</mask>
<g mask="url(#mask1_1131_329)">
<mask id="mask2_1131_329" style="mask-type:luminance" maskUnits="userSpaceOnUse" x="-23" y="300" width="596" height="558">
<path d="M-22.6771 716.209L227.012 300.571L572.592 442.319L322.899 857.949L-22.6771 716.209Z" fill="white"/>
</mask>
<g mask="url(#mask2_1131_329)">
<path fill-rule="evenodd" clip-rule="evenodd" d="M164.158 664.827C197.779 654.779 229.596 642.436 260.361 626.556L242.177 700.979L164.158 664.827Z" fill="#103F65"/>
</g>
</g>
</g>
<mask id="mask3_1131_329" style="mask-type:luminance" maskUnits="userSpaceOnUse" x="292" y="556" width="116" height="111">
<path d="M292.75 598.015L371.079 556.549L407.469 625.291L329.141 666.757L292.75 598.015Z" fill="white"/>
</mask>
<g mask="url(#mask3_1131_329)">
<mask id="mask4_1131_329" style="mask-type:luminance" maskUnits="userSpaceOnUse" x="-23" y="300" width="596" height="558">
<path d="M-22.6761 716.209L227.013 300.571L572.593 442.319L322.9 857.949L-22.6761 716.209Z" fill="white"/>
</mask>
<g mask="url(#mask4_1131_329)">
<mask id="mask5_1131_329" style="mask-type:luminance" maskUnits="userSpaceOnUse" x="-23" y="300" width="596" height="558">
<path d="M-22.6761 716.209L227.013 300.571L572.593 442.319L322.9 857.949L-22.6761 716.209Z" fill="white"/>
</mask>
<g mask="url(#mask5_1131_329)">
<path fill-rule="evenodd" clip-rule="evenodd" d="M300.763 607.878C324.419 593.23 347.795 576.386 370.651 557.776L378.146 640.658L300.763 607.878Z" fill="#7CC1DB"/>
</g>
</g>
</g>
<mask id="mask6_1131_329" style="mask-type:luminance" maskUnits="userSpaceOnUse" x="389" y="457" width="123" height="120">
<path d="M389.049 501.7L472.273 457.642L511.972 532.634L428.748 576.691L389.049 501.7Z" fill="white"/>
</mask>
<g mask="url(#mask6_1131_329)">
<mask id="mask7_1131_329" style="mask-type:luminance" maskUnits="userSpaceOnUse" x="-23" y="300" width="596" height="558">
<path d="M-22.6761 716.209L227.013 300.571L572.593 442.319L322.9 857.949L-22.6761 716.209Z" fill="white"/>
</mask>
<g mask="url(#mask7_1131_329)">
<mask id="mask8_1131_329" style="mask-type:luminance" maskUnits="userSpaceOnUse" x="-23" y="300" width="596" height="558">
<path d="M-22.6761 716.209L227.013 300.571L572.593 442.319L322.9 857.949L-22.6761 716.209Z" fill="white"/>
</mask>
<g mask="url(#mask8_1131_329)">
<path fill-rule="evenodd" clip-rule="evenodd" d="M471.65 460.305L492.685 540.969L406.634 530.549C429.035 509.159 450.903 485.998 471.65 460.305Z" fill="#103F65"/>
</g>
</g>
</g>
<mask id="mask9_1131_329" style="mask-type:luminance" maskUnits="userSpaceOnUse" x="41" y="646" width="115" height="117">
<path d="M41.4639 685.703L114.897 646.829L155.699 723.904L82.2654 762.777L41.4639 685.703Z" fill="white"/>
</mask>
<g mask="url(#mask9_1131_329)">
<mask id="mask10_1131_329" style="mask-type:luminance" maskUnits="userSpaceOnUse" x="-23" y="300" width="596" height="558">
<path d="M-22.6761 716.209L227.013 300.571L572.593 442.319L322.9 857.949L-22.6761 716.209Z" fill="white"/>
</mask>
<g mask="url(#mask10_1131_329)">
<mask id="mask11_1131_329" style="mask-type:luminance" maskUnits="userSpaceOnUse" x="-23" y="300" width="596" height="558">
<path d="M-22.6761 716.209L227.013 300.571L572.593 442.319L322.9 857.949L-22.6761 716.209Z" fill="white"/>
</mask>
<g mask="url(#mask11_1131_329)">
<path fill-rule="evenodd" clip-rule="evenodd" d="M41.8311 685.655C71.1342 683.685 99.7347 679.348 127.38 673.067L98.4865 752.951L41.8311 685.655Z" fill="#7CC1DB"/>
</g>
</g>
</g>
<mask id="mask12_1131_329" style="mask-type:luminance" maskUnits="userSpaceOnUse" x="-9" y="409" width="589" height="415">
<path d="M-8.48535 680.143L503.1 409.321L579.189 553.054L67.604 823.876L-8.48535 680.143Z" fill="white"/>
</mask>
<g mask="url(#mask12_1131_329)">
<mask id="mask13_1131_329" style="mask-type:luminance" maskUnits="userSpaceOnUse" x="-23" y="300" width="596" height="558">
<path d="M-22.6761 716.209L227.013 300.571L572.593 442.319L322.9 857.949L-22.6761 716.209Z" fill="white"/>
</mask>
<g mask="url(#mask13_1131_329)">
<mask id="mask14_1131_329" style="mask-type:luminance" maskUnits="userSpaceOnUse" x="-23" y="300" width="596" height="558">
<path d="M-22.6761 716.209L227.013 300.571L572.593 442.319L322.9 857.949L-22.6761 716.209Z" fill="white"/>
</mask>
<g mask="url(#mask14_1131_329)">
<path d="M405.888 531.798L506.52 543.541C508.904 543.998 511.676 542.02 512.073 539.601C512.572 538.764 512.397 538.179 512.218 537.587L487.572 443.511C493.164 435.968 499.686 427.754 505.53 419.785C507.036 417.29 506.328 414.935 504.458 413.644C502.33 412.77 499.442 413.142 497.524 415.46C461.687 464.517 422.643 506.542 380.99 542.322C347.565 570.59 312.905 594.72 276.416 613.964L274.822 614.86C274.139 615.096 274.139 615.096 273.896 615.516C232.601 637.45 188.868 653.715 142.459 664.741C110.336 672.297 75.9836 677.378 41.1799 679.686L40.7442 679.511C27.9652 680.483 15.6761 680.624 2.28658 680.837C-0.344493 680.792 -2.6948 682.942 -3.08722 685.369C-3.48921 687.801 -1.42968 689.679 1.19708 689.716C13.4863 689.575 25.7711 689.427 37.8855 688.702L104.665 767.4C106.289 769.103 109.342 769.32 111.872 767.762C112.797 767.106 113.301 766.277 113.369 765.272L146.696 672.697C151.178 671.428 154.977 670.396 159.212 669.54L251.624 712.626C254.173 713.672 256.882 712.707 258.379 710.217C258.636 709.799 258.878 709.379 259.125 708.967L280.473 621.327C287.306 617.908 293.707 614.322 300.113 610.722L390.692 648.913C392.82 649.787 395.95 648.994 397.447 646.504C397.951 645.675 398.028 644.665 398.096 643.66L389.006 546.642C394.636 541.692 400.257 536.748 405.888 531.798ZM479.621 453.21L500.903 533.462L414.605 523.454C437.006 502.064 458.878 478.911 479.621 453.21ZM50.2383 687.548C79.5414 685.578 108.142 681.241 136.223 675.136L107.325 755.012L50.2383 687.548ZM173.318 665.479C206.27 655.671 238.334 642.916 269.527 627.195L251.332 701.623L173.318 665.479ZM310.211 604.501C333.877 589.848 357.253 573.004 380.109 554.393L387.609 637.284L310.211 604.501Z" fill="#103F65"/>
</g>
</g>
</g>
<mask id="mask15_1131_329" style="mask-type:luminance" maskUnits="userSpaceOnUse" x="1500" y="533" width="127" height="110">
<path d="M1531.09 533.892L1626.14 579.066L1595.79 642.93L1500.74 597.756L1531.09 533.892Z" fill="white"/>
</mask>
<g mask="url(#mask15_1131_329)">
<mask id="mask16_1131_329" style="mask-type:luminance" maskUnits="userSpaceOnUse" x="1379" y="368" width="576" height="411">
<path d="M1379.43 416.69L1861.91 368.612L1954.7 730.426L1472.22 778.495L1379.43 416.69Z" fill="white"/>
</mask>
<g mask="url(#mask16_1131_329)">
<mask id="mask17_1131_329" style="mask-type:luminance" maskUnits="userSpaceOnUse" x="1379" y="368" width="576" height="411">
<path d="M1379.43 416.69L1861.91 368.612L1954.7 730.426L1472.22 778.495L1379.43 416.69Z" fill="white"/>
</mask>
<g mask="url(#mask17_1131_329)">
<path fill-rule="evenodd" clip-rule="evenodd" d="M1532.25 535.822C1560.4 556.781 1589.3 574.922 1620.42 590.106L1549.87 619.985L1532.25 535.822Z" fill="#103F65"/>
</g>
</g>
</g>
<mask id="mask18_1131_329" style="mask-type:luminance" maskUnits="userSpaceOnUse" x="1629" y="599" width="114" height="109">
<path d="M1662.65 599.027L1742.7 637.069L1709.32 707.319L1629.27 669.277L1662.65 599.027Z" fill="white"/>
</mask>
<g mask="url(#mask18_1131_329)">
<mask id="mask19_1131_329" style="mask-type:luminance" maskUnits="userSpaceOnUse" x="1379" y="368" width="576" height="411">
<path d="M1379.43 416.69L1861.91 368.612L1954.7 730.426L1472.22 778.495L1379.43 416.69Z" fill="white"/>
</mask>
<g mask="url(#mask19_1131_329)">
<mask id="mask20_1131_329" style="mask-type:luminance" maskUnits="userSpaceOnUse" x="1379" y="368" width="576" height="411">
<path d="M1379.43 416.69L1861.91 368.612L1954.7 730.426L1472.22 778.495L1379.43 416.69Z" fill="white"/>
</mask>
<g mask="url(#mask20_1131_329)">
<path fill-rule="evenodd" clip-rule="evenodd" d="M1659.53 611.345C1685.41 621.565 1712.88 630.247 1741.46 637.458L1679.48 692.985L1659.53 611.345Z" fill="#7CC1DB"/>
</g>
</g>
</g>
<mask id="mask21_1131_329" style="mask-type:luminance" maskUnits="userSpaceOnUse" x="1761" y="618" width="122" height="118">
<path d="M1797.42 618.711L1882.47 659.13L1846.05 735.767L1761 695.348L1797.42 618.711Z" fill="white"/>
</mask>
<g mask="url(#mask21_1131_329)">
<mask id="mask22_1131_329" style="mask-type:luminance" maskUnits="userSpaceOnUse" x="1379" y="368" width="576" height="411">
<path d="M1379.43 416.69L1861.91 368.612L1954.7 730.426L1472.22 778.495L1379.43 416.69Z" fill="white"/>
</mask>
<g mask="url(#mask22_1131_329)">
<mask id="mask23_1131_329" style="mask-type:luminance" maskUnits="userSpaceOnUse" x="1379" y="368" width="576" height="411">
<path d="M1379.43 416.69L1861.91 368.612L1954.7 730.426L1472.22 778.495L1379.43 416.69Z" fill="white"/>
</mask>
<g mask="url(#mask23_1131_329)">
<path fill-rule="evenodd" clip-rule="evenodd" d="M1879.97 660.222L1827.85 725.28L1784.79 650.049C1815.33 655.234 1846.97 658.933 1879.97 660.222Z" fill="#103F65"/>
</g>
</g>
</g>
<mask id="mask24_1131_329" style="mask-type:luminance" maskUnits="userSpaceOnUse" x="1404" y="449" width="114" height="116">
<path d="M1442.21 449.901L1517.26 485.565L1479.83 564.331L1404.78 528.667L1442.21 449.901Z" fill="white"/>
</mask>
<g mask="url(#mask24_1131_329)">
<mask id="mask25_1131_329" style="mask-type:luminance" maskUnits="userSpaceOnUse" x="1379" y="368" width="576" height="411">
<path d="M1379.43 416.69L1861.91 368.612L1954.7 730.426L1472.22 778.495L1379.43 416.69Z" fill="white"/>
</mask>
<g mask="url(#mask25_1131_329)">
<mask id="mask26_1131_329" style="mask-type:luminance" maskUnits="userSpaceOnUse" x="1379" y="368" width="576" height="411">
<path d="M1379.43 416.69L1861.91 368.612L1954.7 730.426L1472.22 778.495L1379.43 416.69Z" fill="white"/>
</mask>
<g mask="url(#mask26_1131_329)">
<path fill-rule="evenodd" clip-rule="evenodd" d="M1442.47 450.166C1461.55 472.488 1482.12 492.832 1503.67 511.25L1422.35 535.804L1442.47 450.166Z" fill="#7CC1DB"/>
</g>
</g>
</g>
<mask id="mask27_1131_329" style="mask-type:luminance" maskUnits="userSpaceOnUse" x="1347" y="406" width="593" height="396">
<path d="M1416.83 406.523L1939.64 654.983L1869.83 801.871L1347.02 553.411L1416.83 406.523Z" fill="white"/>
</mask>
<g mask="url(#mask27_1131_329)">
<mask id="mask28_1131_329" style="mask-type:luminance" maskUnits="userSpaceOnUse" x="1379" y="368" width="576" height="411">
<path d="M1379.43 416.69L1861.91 368.612L1954.7 730.426L1472.22 778.495L1379.43 416.69Z" fill="white"/>
</mask>
<g mask="url(#mask28_1131_329)">
<mask id="mask29_1131_329" style="mask-type:luminance" maskUnits="userSpaceOnUse" x="1379" y="368" width="576" height="411">
<path d="M1379.43 416.69L1861.91 368.612L1954.7 730.426L1472.22 778.495L1379.43 416.69Z" fill="white"/>
</mask>
<g mask="url(#mask29_1131_329)">
<path d="M1783.35 650.197L1834.05 737.912C1835.11 740.097 1838.35 741.138 1840.53 740.011C1841.5 739.912 1841.86 739.422 1842.23 738.924L1902.95 662.958C1912.34 662.935 1922.82 663.258 1932.7 663.184C1935.6 662.901 1937.07 660.927 1936.99 658.655C1936.42 656.427 1934.39 654.334 1931.39 654.18C1870.64 654.749 1813.61 648.545 1760.03 636.518C1717.4 626.602 1677.34 613.222 1640.11 595.457L1638.44 594.714C1637.84 594.308 1637.84 594.308 1637.36 594.364C1595.1 574.352 1555.93 548.999 1519.36 518.369C1494.11 497.123 1469.51 472.61 1446.87 446.079L1446.75 445.624C1438.33 435.958 1430.88 426.187 1422.71 415.576C1421.17 413.44 1418.04 412.84 1415.86 413.975C1413.67 415.105 1413.4 417.879 1414.94 420.007C1422.39 429.778 1429.85 439.541 1437.67 448.823L1414.45 549.391C1414.06 551.711 1415.71 554.289 1418.47 555.387C1419.55 555.737 1420.51 555.645 1421.36 555.099L1515.51 526.519C1519.2 529.355 1522.3 531.786 1525.52 534.67L1546.18 634.518C1546.86 637.188 1549.25 638.783 1552.14 638.496C1552.63 638.453 1553.11 638.396 1553.59 638.348L1636.63 603.11C1643.45 606.546 1650.15 609.537 1656.86 612.524L1680.35 707.978C1680.92 710.206 1683.43 712.243 1686.32 711.956C1687.28 711.864 1688.14 711.323 1688.99 710.777L1761.36 645.527C1768.69 647.085 1776.01 648.639 1783.35 650.197ZM1890.42 662.376L1838.78 727.386L1795.25 652.203C1825.78 657.387 1857.42 661.095 1890.42 662.376ZM1445.97 458.04C1465.06 480.362 1485.63 500.706 1507.3 519.578L1425.98 544.123L1445.97 458.04ZM1537.2 543.556C1564.75 564.122 1594.14 582.215 1625.38 597.837L1554.82 627.711L1537.2 543.556ZM1667.89 616.905C1693.77 627.129 1721.25 635.812 1749.83 643.023L1687.83 698.558L1667.89 616.905Z" fill="#103F65"/>
</g>
</g>
</g>
</svg>
