<svg xmlns="http://www.w3.org/2000/svg" xmlns:xlink="http://www.w3.org/1999/xlink" width="500" zoomAndPan="magnify" viewBox="0 0 375 374.999991" height="500" preserveAspectRatio="xMidYMid meet" version="1.0"><defs><clipPath id="0bde5c133f"><path d="M 137 171 L 175 171 L 175 201 L 137 201 Z M 137 171 " clip-rule="nonzero"/></clipPath><clipPath id="e26da996c7"><path d="M 69.378906 153.707031 L 219.269531 47.417969 L 305.601562 169.167969 L 155.710938 275.453125 Z M 69.378906 153.707031 " clip-rule="nonzero"/></clipPath><clipPath id="b2c62c6ebf"><path d="M 69.378906 153.707031 L 219.269531 47.417969 L 305.601562 169.167969 L 155.710938 275.453125 Z M 69.378906 153.707031 " clip-rule="nonzero"/></clipPath><clipPath id="06c360927e"><path d="M 190 172 L 222 172 L 222 205 L 190 205 Z M 190 172 " clip-rule="nonzero"/></clipPath><clipPath id="b3a7c99742"><path d="M 69.378906 153.707031 L 219.269531 47.417969 L 305.601562 169.167969 L 155.710938 275.453125 Z M 69.378906 153.707031 " clip-rule="nonzero"/></clipPath><clipPath id="af74bbeaea"><path d="M 69.378906 153.707031 L 219.269531 47.417969 L 305.601562 169.167969 L 155.710938 275.453125 Z M 69.378906 153.707031 " clip-rule="nonzero"/></clipPath><clipPath id="73c64c4ac1"><path d="M 237 155 L 271 155 L 271 191 L 237 191 Z M 237 155 " clip-rule="nonzero"/></clipPath><clipPath id="3634254b37"><path d="M 69.378906 153.707031 L 219.269531 47.417969 L 305.601562 169.167969 L 155.710938 275.453125 Z M 69.378906 153.707031 " clip-rule="nonzero"/></clipPath><clipPath id="e385363305"><path d="M 69.378906 153.707031 L 219.269531 47.417969 L 305.601562 169.167969 L 155.710938 275.453125 Z M 69.378906 153.707031 " clip-rule="nonzero"/></clipPath><clipPath id="1c3e1f5822"><path d="M 95 155 L 125 155 L 125 192 L 95 192 Z M 95 155 " clip-rule="nonzero"/></clipPath><clipPath id="fb4c91ffaa"><path d="M 69.378906 153.707031 L 219.269531 47.417969 L 305.601562 169.167969 L 155.710938 275.453125 Z M 69.378906 153.707031 " clip-rule="nonzero"/></clipPath><clipPath id="23613ad016"><path d="M 69.378906 153.707031 L 219.269531 47.417969 L 305.601562 169.167969 L 155.710938 275.453125 Z M 69.378906 153.707031 " clip-rule="nonzero"/></clipPath><clipPath id="6a2c91052f"><path d="M 80 143 L 289 143 L 289 212 L 80 212 Z M 80 143 " clip-rule="nonzero"/></clipPath><clipPath id="cfaf9dac0b"><path d="M 69.378906 153.707031 L 219.269531 47.417969 L 305.601562 169.167969 L 155.710938 275.453125 Z M 69.378906 153.707031 " clip-rule="nonzero"/></clipPath><clipPath id="d5c5053c7c"><path d="M 69.378906 153.707031 L 219.269531 47.417969 L 305.601562 169.167969 L 155.710938 275.453125 Z M 69.378906 153.707031 " clip-rule="nonzero"/></clipPath></defs><g clip-path="url(#0bde5c133f)"><g clip-path="url(#e26da996c7)"><g clip-path="url(#b2c62c6ebf)"><path fill="#103f65" d="M 137.679688 171.527344 C 150.105469 174.433594 162.34375 176.121094 174.84375 176.273438 L 156.46875 200.570312 Z M 137.679688 171.527344 " fill-opacity="1" fill-rule="evenodd"/></g></g></g><g clip-path="url(#06c360927e)"><g clip-path="url(#b3a7c99742)"><g clip-path="url(#af74bbeaea)"><path fill="#7cc1db" d="M 190.890625 177.289062 C 200.914062 176.492188 211.21875 174.816406 221.65625 172.375 L 210.046875 204.941406 Z M 190.890625 177.289062 " fill-opacity="1" fill-rule="evenodd"/></g></g></g><g clip-path="url(#73c64c4ac1)"><g clip-path="url(#3634254b37)"><g clip-path="url(#e385363305)"><path fill="#103f65" d="M 270.351562 155.875 L 263.4375 190.296875 L 237.738281 169.308594 C 248.5 165.734375 259.390625 161.390625 270.351562 155.875 Z M 270.351562 155.875 " fill-opacity="1" fill-rule="evenodd"/></g></g></g><g clip-path="url(#1c3e1f5822)"><g clip-path="url(#fb4c91ffaa)"><g clip-path="url(#23613ad016)"><path fill="#7cc1db" d="M 95.125 155.054688 C 104.808594 160.132812 114.667969 164.183594 124.550781 167.316406 L 101.835938 191.535156 Z M 95.125 155.054688 " fill-opacity="1" fill-rule="evenodd"/></g></g></g><g clip-path="url(#6a2c91052f)"><g clip-path="url(#cfaf9dac0b)"><g clip-path="url(#d5c5053c7c)"><path fill="#103f65" d="M 237.289062 169.628906 L 267.417969 194.007812 C 268.101562 194.652344 269.320312 194.460938 269.855469 193.632812 C 270.15625 193.417969 270.199219 193.164062 270.242188 192.90625 L 278.269531 152.738281 C 281.328125 151.019531 284.796875 149.234375 288.007812 147.40625 C 288.910156 146.769531 289.082031 145.746094 288.703125 144.890625 C 288.171875 144.140625 287.1875 143.707031 286.183594 144.195312 C 266.460938 155.476562 246.902344 163.484375 227.566406 168.632812 C 212.125 172.597656 196.988281 174.765625 182.09375 174.738281 L 181.433594 174.757812 C 181.175781 174.710938 181.175781 174.710938 181.027344 174.820312 C 164.144531 174.847656 147.441406 172.265625 130.769531 167.1875 C 119.242188 163.644531 107.421875 158.730469 95.925781 152.6875 C 95.925781 152.6875 95.816406 152.535156 95.816406 152.535156 C 91.574219 150.363281 87.628906 147.976562 83.320312 145.398438 C 82.488281 144.859375 81.375 145.199219 80.839844 146.03125 C 80.300781 146.863281 80.640625 147.976562 81.472656 148.511719 C 85.417969 150.898438 89.363281 153.28125 93.351562 155.414062 L 101.367188 198.179688 C 101.597656 199.140625 102.535156 199.828125 103.605469 199.746094 C 104.011719 199.683594 104.3125 199.472656 104.503906 199.109375 L 130.777344 171.011719 C 132.421875 171.425781 133.808594 171.792969 135.304688 172.3125 L 157.515625 206.8125 C 158.152344 207.710938 159.179688 207.886719 160.078125 207.25 C 160.230469 207.144531 160.378906 207.035156 160.527344 206.929688 L 182.144531 178.304688 C 184.902344 178.378906 187.550781 178.304688 190.203125 178.226562 L 212.65625 210.527344 C 213.1875 211.277344 214.320312 211.601562 215.21875 210.964844 C 215.519531 210.753906 215.714844 210.390625 215.90625 210.027344 L 229.394531 171.84375 C 232.027344 171.105469 234.65625 170.367188 237.289062 169.628906 Z M 274.09375 154.796875 L 267.328125 189.113281 L 241.480469 168.230469 C 252.242188 164.65625 263.132812 160.316406 274.09375 154.796875 Z M 97.488281 157.433594 C 107.171875 162.511719 117.03125 166.5625 127.023438 169.847656 L 104.308594 194.0625 Z M 140.492188 173.589844 C 152.664062 176.453125 165.050781 178.035156 177.660156 178.332031 L 159.28125 202.628906 Z M 194.476562 177.898438 C 204.503906 177.101562 214.808594 175.425781 225.246094 172.984375 L 213.636719 205.554688 Z M 194.476562 177.898438 " fill-opacity="1" fill-rule="nonzero"/></g></g></g></svg>